<svg xmlns="http://www.w3.org/2000/svg" version="1.1" xmlns:xlink="http://www.w3.org/1999/xlink" xmlns:svgjs="http://svgjs.dev/svgjs" width="1500" height="1500" viewBox="0 0 1500 1500"><rect width="1500" height="1500" fill="#ffffff"></rect><g transform="matrix(0.6666666666666666,0,0,0.6666666666666666,249.39393939393938,632.9504889345676)"><svg viewBox="0 0 396 93" data-background-color="#b76e79" preserveAspectRatio="xMidYMid meet" height="352" width="1500" xmlns="http://www.w3.org/2000/svg" xmlns:xlink="http://www.w3.org/1999/xlink"><g id="tight-bounds" transform="matrix(1,0,0,1,0.2400000000000091,-0.11248069992097953)"><svg viewBox="0 0 395.52 93.22496139984199" height="93.22496139984199" width="395.52"><g><svg viewBox="0 0 484.70043760916985 114.24499288683602" height="93.22496139984199" width="395.52"><g transform="matrix(1,0,0,1,0,15.789286281755196)"><svg viewBox="0 0 395.52 82.66642032332562" height="82.66642032332562" width="395.52"><g id="textblocktransform"><svg viewBox="0 0 395.52 82.66642032332562" height="82.66642032332562" width="395.52" id="textblock"><g><svg viewBox="0 0 395.52 82.66642032332562" height="82.66642032332562" width="395.52"><g transform="matrix(1,0,0,1,0,0)"><svg width="395.52" viewBox="-0.1 -40.7 216.48 45.25" height="82.66642032332562" data-palette-color="#fffff0"><path d="M45-33.95L45-33.95Q45-35.7 43.4-37.25L43.4-37.25Q41.1-39.45 37.05-39.45L37.05-39.45Q33.5-39.45 29.2-37.9L29.2-37.9Q26.95-37.1 25.3-35.7L25.3-35.7Q22.75-33.5 22.75-31.3L22.75-31.3Q22.75-28.35 26.5-26L26.5-26Q27.9-25.15 32.13-23.23 36.35-21.3 38.3-20.1L38.3-20.1Q41.25-18.3 42.38-16.25 43.5-14.2 43.5-12.45L43.5-12.45Q43.5-9.95 41.85-7.35L41.85-7.35Q38.95-2.7 33.35 0.65L33.35 0.65Q26.9 4.55 17.8 4.55L17.8 4.55Q9.05 4.55 3.9 0.1L3.9 0.1Q-0.1-3.3-0.1-8.65L-0.1-8.65Q-0.1-12.05 2.38-16.15 4.85-20.25 8.45-21.95L8.45-21.95Q9.2-22.25 9.58-22.15 9.95-22.05 8.95-21.2L8.95-21.2Q6.8-19.5 5.5-17.45L5.5-17.45Q2.7-13.05 2.7-7.9L2.7-7.9Q2.7-4.5 4.6-1.95L4.6-1.95Q8 2.6 16.4 3.2L16.4 3.2Q17.35 3.3 19.23 3.3 21.1 3.3 24.33 2.63 27.55 1.95 30.55 0.4L30.55 0.4Q37-3 38.9-8.4L38.9-8.4Q39.5-10 39.5-11.5L39.5-11.5Q39.5-14.9 36.45-17.5L36.45-17.5Q34.8-18.8 29.73-20.98 24.65-23.15 22.9-24.3L22.9-24.3Q19.05-26.9 19.05-30.45L19.05-30.45Q19.05-33.55 22.5-36.5L22.5-36.5Q27.45-40.7 36.5-40.7L36.5-40.7Q40.75-40.7 43.43-39.43 46.1-38.15 46.7-35.6L46.7-35.6Q46.8-35.1 46.8-34.6L46.8-34.6Q46.8-32.65 45-31.1L45-31.1Q43.75-30.1 41.65-29.5L41.65-29.5Q40.75-29.25 40.65-29.7L40.65-29.7Q40.55-30.35 41.9-30.5L41.9-30.5Q44.3-30.8 44.85-32.9L44.85-32.9Q45-33.45 45-33.95ZM63.1-13.55Q62.2-12.65 60.55-9.47 58.9-6.3 58.57-4.73 58.25-3.15 58.25-2.18 58.25-1.2 59-1.2L59-1.2Q59.95-1.2 61.35-2.95L61.35-2.95Q63.4-5.5 65.4-9.6L65.4-9.6Q65.6-10.05 65.85-10.1L65.85-10.1Q66.25-10.25 66.25-9.8L66.25-9.8Q66.25-9.55 66.1-9.2L66.1-9.2Q61.5 0.1 58.35 0.1L58.35 0.1Q56.9 0.1 56-1.3L56-1.3Q55.55-2.05 55.55-3.3 55.55-4.55 56.05-6.35L56.05-6.35Q52.05 0.1 49.15 0.1L49.15 0.1Q48.35 0.1 47.7-0.4L47.7-0.4Q46.2-1.45 46.2-4L46.2-4Q46.2-8.9 50.45-13.95L50.45-13.95Q52.85-16.75 56.35-17.6L56.35-17.6Q57.3-17.85 58.15-17.85L58.15-17.85Q60.45-17.85 62.05-16.25L62.05-16.25Q62.55-15.7 62.35-15.2 62.15-14.7 61.5-14.8L61.5-14.8Q60.95-16.6 59.1-16.6L59.1-16.6Q56.95-16.6 53.8-13.2L53.8-13.2Q52-11.2 50.45-8.5L50.45-8.5Q48.5-5.25 48.5-3.3 48.5-1.35 49.75-1.35L49.75-1.35Q52.75-1.35 57.6-10.55L57.6-10.55Q58.55-12.4 59.2-13.08 59.85-13.75 60.85-13.75L60.85-13.75Q61.05-13.75 61.87-13.6 62.7-13.45 63.1-13.55L63.1-13.55ZM68.15-9.65Q68.1-9.45 67.7-8.28 67.3-7.1 67.02-6.03 66.75-4.95 66.75-3.88 66.75-2.8 67.25-1.88 67.75-0.95 68.85-0.95L68.85-0.95Q70.65-0.95 72.35-3.38 74.05-5.8 75.95-9.55L75.95-9.55Q76.35-10.25 76.7-10.1L76.7-10.1Q76.95-9.9 76.8-9.58 76.65-9.25 76.17-8.18 75.7-7.1 75.47-6.68 75.25-6.25 74.67-5.18 74.1-4.1 73.67-3.58 73.25-3.05 72.52-2.23 71.8-1.4 71.15-1L71.15-1Q69.4 0.1 67.85 0.1 66.3 0.1 65.45-0.58 64.6-1.25 64.42-2.02 64.25-2.8 64.25-3.4 64.25-4 64.3-4.95L64.3-4.95Q64.45-6.55 64.92-8.05 65.4-9.55 65.45-9.75L65.45-9.75Q66.6-13.9 68.72-18.8 70.85-23.7 72.32-26.18 73.8-28.65 74.65-29.55L74.65-29.55Q76.35-31.35 78-31.35L78-31.35Q79.15-31.35 79.55-29.7L79.55-29.7Q79.6-29.4 79.6-28.95L79.6-28.95Q79.6-27.25 78.4-24.65L78.4-24.65Q74.1-15.1 68.15-9.65L68.15-9.65ZM68.55-11.25Q71.1-13.85 73.6-17.8 76.1-21.75 77.27-24.53 78.45-27.3 78.45-28.3 78.45-29.3 78.1-29.3L78.1-29.3Q77.6-29.3 76.2-27.33 74.8-25.35 72.42-20.23 70.05-15.1 68.55-11.25L68.55-11.25ZM85.09-17.5L85.09-17.5Q88.74-17.5 88.74-12.9L88.74-12.9Q88.74-10.8 87.64-8.4L87.64-8.4Q86.24-5.15 83.44-2.5L83.44-2.5Q84.09-1.25 85.79-1.25L85.79-1.25Q87.14-1.25 88.34-2.6L88.34-2.6Q89.84-4.15 90.49-5.33 91.14-6.5 91.44-7.05 91.74-7.6 92.22-8.63 92.69-9.65 92.79-9.88 92.89-10.1 93.14-10.1L93.14-10.1Q93.64-10.15 93.64-9.75L93.64-9.75Q93.64-9.6 93.54-9.4L93.54-9.4 93.24-8.7Q92.94-8 92.79-7.7 92.64-7.4 92.27-6.63 91.89-5.85 91.62-5.4 91.34-4.95 90.87-4.2 90.39-3.45 90.02-3 89.64-2.55 89.09-2 88.54-1.45 88.04-1.15L88.04-1.15Q86.79-0.4 85.69-0.4L85.69-0.4Q83.64-0.4 82.49-1.7L82.49-1.7Q80.19 0 78.24 0L78.24 0Q74.59 0 74.59-4.6L74.59-4.6Q74.59-6.7 75.69-9.1L75.69-9.1Q77.19-12.6 79.92-15.05 82.64-17.5 85.09-17.5ZM85.64-15.95L85.64-15.95Q84.29-15.95 82.44-14.15 80.59-12.35 79.14-9.25L79.14-9.25Q77.39-5.65 77.39-3.35 77.39-1.05 79.14-1.05L79.14-1.05Q80.39-1.05 81.94-2.4L81.94-2.4Q81.14-3.55 81.14-4.85L81.14-4.85Q81.24-7 82.89-7L82.89-7Q83.54-7 83.97-6.55 84.39-6.1 84.39-5.73 84.39-5.35 84.29-4.95L84.29-4.95Q85.14-6.2 86.24-8.5L86.24-8.5Q87.49-11.05 87.49-13.5 87.49-15.95 85.64-15.95ZM107.84-16.4L107.84-16.4Q101.69-5.6 101.69-2.3L101.69-2.3Q101.69-1 102.64-1L102.64-1Q105.19-1 109.49-9.65L109.49-9.65Q109.79-10.35 110.09-10.2 110.39-10.05 110.39-9.8 110.39-9.55 110.19-9.2L110.19-9.2Q107.54-3.85 105.72-1.83 103.89 0.2 102.07 0.2 100.24 0.2 99.29-1.2L99.29-1.2Q98.79-1.85 98.79-2.98 98.79-4.1 99.29-5.7 99.79-7.3 102.04-10.9L102.04-10.9Q102.59-11.8 102.59-12.33 102.59-12.85 101.74-12.85 100.89-12.85 98.49-10.6L98.49-10.6Q94.89-7.3 91.54-0.7L91.54-0.7Q91.24-0.2 90.87-0.08 90.49 0.05 89.39 0.1 88.29 0.15 87.94 0.35L87.94 0.35Q88.74-1.25 91.09-6.2L91.09-6.2Q95.29-14.95 96.59-16.2L96.59-16.2Q97.19-16.8 98.24-16.8L98.24-16.8Q98.44-16.8 99.27-16.65 100.09-16.5 100.49-16.6L100.49-16.6Q98.64-15.6 94.44-7.2L94.44-7.2Q96.79-10.1 98.72-11.83 100.64-13.55 103.34-15.03 106.04-16.5 107.29-16.5L107.29-16.5Q107.59-16.5 107.84-16.4ZM169.24-0.4Q166.99 2.05 164.06 2.05 161.14 2.05 158.44-0.78 155.74-3.6 153.94-8.85 152.14-14.1 151.44-18.25L151.44-18.25Q149.84-15.05 148.94-13.38 148.04-11.7 146.29-9.1 144.54-6.5 142.64-4.4L142.64-4.4Q136.74 1.95 129.29 1.95L129.29 1.95Q122.54 1.95 120.89-1.7L120.89-1.7Q120.49-2.55 120.49-3.68 120.49-4.8 121.64-6.1L121.64-6.1Q123.49-8.15 126.74-8.15L126.74-8.15Q128.94-8.15 131.39-7.3L131.39-7.3Q132.04-7.05 131.89-6.75 131.74-6.45 130.59-6.9 129.44-7.35 127.81-7.35 126.19-7.35 125.01-6.1 123.84-4.85 123.84-3.5L123.84-3.5Q123.84-2.9 124.09-2.2L124.09-2.2Q125.09 0.4 128.79 0.4L128.79 0.4Q132.89 0.4 136.04-2.05L136.04-2.05Q137.84-3.45 139.29-4.9 140.74-6.35 142.39-8.8L142.39-8.8Q144.99-12.55 146.81-15.78 148.64-19 150.76-22.83 152.89-26.65 153.89-28.4L153.89-28.4Q157.09-33.85 159.74-36.75L159.74-36.75Q156.94-37 154.14-37L154.14-37Q147.74-37 141.41-35.68 135.09-34.35 131.39-31.3L131.39-31.3Q126.74-27.45 126.74-23.1L126.74-23.1Q126.74-21 128.24-19.38 129.74-17.75 132.29-17.75L132.29-17.75Q135.39-17.75 137.44-19.95 139.49-22.15 139.59-23.45L139.59-23.45Q139.64-24.1 139.89-24.1L139.89-24.1Q140.29-24.1 140.24-23.35L140.24-23.35Q139.89-20.95 138.29-19.3L138.29-19.3Q135.49-16.4 131.59-16.4L131.59-16.4Q128.64-16.4 126.46-18.4 124.29-20.4 124.29-23.75L124.29-23.75Q124.29-28.7 129.11-32.63 133.94-36.55 141.79-37.7L141.79-37.7Q147.39-38.5 152.11-38.5 156.84-38.5 160.84-37.95L160.84-37.95Q162.14-39.35 162.64-39.35L162.64-39.35Q162.94-39.35 162.94-38.88 162.94-38.4 162.69-37.7L162.69-37.7Q166.39-37.1 167.64-36.75L167.64-36.75Q175.14-34.55 175.14-29.95L175.14-29.95Q175.14-27 171.49-24.1L171.49-24.1Q166.89-20.55 159.19-19.3L159.19-19.3Q156.99-18.95 154.59-18.85L154.59-18.85Q156.19-10 160.14-3.95L160.14-3.95Q161.49-1.9 162.61-0.98 163.74-0.05 165.04-0.05L165.04-0.05Q166.84-0.05 168.86-2.05 170.89-4.05 173.54-9.35L173.54-9.35Q173.94-10.1 174.34-10.1L174.34-10.1Q174.74-10.1 174.39-9.35L174.39-9.35Q171.49-2.85 169.24-0.4ZM171.54-30.7L171.54-30.7Q171.54-31.1 171.44-31.5L171.44-31.5Q170.89-34.3 166.99-35.5L166.99-35.5Q165.79-35.85 162.09-36.45L162.09-36.45Q161.19-34.9 157.69-29.2 154.19-23.5 152.49-20.15L152.49-20.15Q153.59-20.35 155.71-20.53 157.84-20.7 158.79-20.8L158.79-20.8Q164.49-21.5 168.49-25.25L168.49-25.25Q171.54-28.05 171.54-30.7ZM182.73-17.5L182.73-17.5Q186.38-17.5 186.38-12.9L186.38-12.9Q186.38-10.8 185.28-8.4L185.28-8.4Q183.88-5.15 181.08-2.5L181.08-2.5Q181.73-1.25 183.43-1.25L183.43-1.25Q184.78-1.25 185.98-2.6L185.98-2.6Q187.48-4.15 188.13-5.33 188.78-6.5 189.08-7.05 189.38-7.6 189.86-8.63 190.33-9.65 190.43-9.88 190.53-10.1 190.78-10.1L190.78-10.1Q191.28-10.15 191.28-9.75L191.28-9.75Q191.28-9.6 191.18-9.4L191.18-9.4 190.88-8.7Q190.58-8 190.43-7.7 190.28-7.4 189.91-6.63 189.53-5.85 189.26-5.4 188.98-4.95 188.51-4.2 188.03-3.45 187.66-3 187.28-2.55 186.73-2 186.18-1.45 185.68-1.15L185.68-1.15Q184.43-0.4 183.33-0.4L183.33-0.4Q181.28-0.4 180.13-1.7L180.13-1.7Q177.83 0 175.88 0L175.88 0Q172.23 0 172.23-4.6L172.23-4.6Q172.23-6.7 173.33-9.1L173.33-9.1Q174.83-12.6 177.56-15.05 180.28-17.5 182.73-17.5ZM183.28-15.95L183.28-15.95Q181.93-15.95 180.08-14.15 178.23-12.35 176.78-9.25L176.78-9.25Q175.03-5.65 175.03-3.35 175.03-1.05 176.78-1.05L176.78-1.05Q178.03-1.05 179.58-2.4L179.58-2.4Q178.78-3.55 178.78-4.85L178.78-4.85Q178.88-7 180.53-7L180.53-7Q181.18-7 181.61-6.55 182.03-6.1 182.03-5.73 182.03-5.35 181.93-4.95L181.93-4.95Q182.78-6.2 183.88-8.5L183.88-8.5Q185.13-11.05 185.13-13.5 185.13-15.95 183.28-15.95ZM194.63-0.95L194.63-0.95Q195.28-0.85 195.53-0.85L195.53-0.85Q197.53-0.85 199.48-3.2L199.48-3.2Q200.53-4.5 203.23-9.75L203.23-9.75Q203.33-10 203.58-10L203.58-10Q204.03-10.05 204.03-9.65L204.03-9.65Q204.03-9.55 203.81-9.08 203.58-8.6 203.38-8.13 203.18-7.65 202.73-6.75 202.28-5.85 201.96-5.3 201.63-4.75 201.13-3.95 200.63-3.15 200.13-2.7L200.13-2.7 199.08-1.6Q198.23-0.75 197.08-0.4L197.08-0.4Q195.23 0.2 193.48-0.3L193.48-0.3Q192.33 0.2 191.43 0.2L191.43 0.2Q187.88 0.2 187.13-2.6L187.13-2.6Q186.98-3.25 186.98-4.17 186.98-5.1 187.61-5.95 188.23-6.8 188.93-6.85L188.93-6.85Q191.48-11.7 193.28-15.6L193.28-15.6Q195.28-19.85 197.93-19.85L197.93-19.85Q198.63-19.85 199.31-19.53 199.98-19.2 199.81-18.8 199.63-18.4 199.08-18.65 198.53-18.9 198.13-18.9 197.73-18.9 197.43-18.75L197.43-18.75Q195.73-17.95 195.73-15.3L195.73-15.3Q195.73-13.9 196.13-13 196.53-12.1 197.03-11.05L197.03-11.05Q198.18-8.45 198.18-6.8L198.18-6.8Q198.18-5.15 197.13-3.55 196.08-1.95 194.63-0.95ZM192.93-1.3L192.93-1.3Q195.13-3 195.13-6.8L195.13-6.8Q195.13-8.35 194.78-11.05 194.43-13.75 194.43-14.7 194.43-15.65 194.48-16L194.48-16Q190.68-8.4 189.78-6.75L189.78-6.75Q190.83-6.75 190.83-5.25L190.83-5.25Q190.83-2.3 192.93-1.3ZM189.18-2.65L189.18-2.65Q189.18-2.35 189.23-2L189.23-2Q189.63-0.65 191.08-0.65L191.08-0.65Q191.68-0.65 192.08-0.85L192.08-0.85Q190.23-2 190.08-4.6L190.08-4.6Q189.18-3.7 189.18-2.65ZM205.38-7.7L205.38-7.7Q204.68-6 204.68-3.9L204.68-3.9Q204.68-2.5 205.3-1.68 205.93-0.85 207.08-0.85L207.08-0.85Q211.63-0.85 215.33-9.4L215.33-9.4Q215.68-10.2 216.18-10.1L216.18-10.1Q216.38-10.05 216.38-9.85 216.38-9.65 215.25-7.23 214.13-4.8 212.98-3.3L212.98-3.3Q210.43 0.2 206.68 0.2L206.68 0.2Q204.68 0.2 203.28-1.1 201.88-2.4 201.88-4.65 201.88-6.9 202.95-9.43 204.03-11.95 205.88-14.13 207.73-16.3 210.13-17.3L210.13-17.3Q211.28-17.8 212.33-17.8 213.38-17.8 214.28-17.2L214.28-17.2Q215.13-16.5 215.13-15.65L215.13-15.65Q215.13-12.65 211.53-9.9L211.53-9.9Q210.43-9.05 208.43-8.38 206.43-7.7 205.38-7.7ZM213.78-15.7L213.78-15.7Q213.78-16.7 212.98-16.7L212.98-16.7Q211.58-16.7 208.73-13.25L208.73-13.25Q207.03-11.15 205.73-8.55L205.73-8.55Q206.58-8.55 208.2-9.15 209.83-9.75 211.03-10.75L211.03-10.75Q213.78-13.1 213.78-15.7Z" opacity="1" transform="matrix(1,0,0,1,0,0)" fill="#000000" class="wordmark-text-0" data-fill-palette-color="primary" id="text-0"></path></svg></g></svg></g></svg></g></svg></g><g transform="matrix(1,0,0,1,415.0355578442494,0)"><svg viewBox="0 0 69.66487976492046 114.24499288683602" height="114.24499288683602" width="69.66487976492046"><g><svg xmlns="http://www.w3.org/2000/svg" xmlns:xlink="http://www.w3.org/1999/xlink" version="1.1" x="0" y="0" viewBox="165.30073902848738 58.4994045709805 532.6442609715125 873.495224727945" enable-background="new 0 0 1000 1000" xml:space="preserve" height="114.24499288683602" width="69.66487976492046" class="icon-icon-0" data-fill-palette-color="accent" id="icon-0"><g fill="#fffff0" data-fill-palette-color="accent"><path d="M430.277 546.846c60.604-42.422 1.01-125.248 29.292-180.801 17.171-32.322 53.534-47.473 85.856-59.594 48.482-18.181 101.007-24.242 152.52-23.231-63.634 29.292-114.138 72.725-138.379 140.399-14.141 39.393-25.252 82.825-61.614 108.077-13.131 8.08-61.614 27.271-74.745 17.171" fill="#000000" data-fill-palette-color="accent"></path></g><g fill="#fffff0" data-fill-palette-color="accent"><path d="M476.376 313.117c-3.03-17.171-20.201-28.282-33.332-37.372-23.231-18.182-46.463-38.383-63.634-62.625-25.251-34.342-48.483-88.886-28.282-130.298-26.262 25.251-44.443 71.714-57.574 106.057-15.151 39.393-22.221 82.826-22.221 124.238 0 68.684 27.272 158.58 83.835 199.993 15.151 11.11 36.362 25.251 54.543 25.251 17.171 0 17.171-11.11 20.201-27.271 6.061-33.332-3.03-62.624-5.05-96.966C422.843 379.781 431.085 335.944 476.376 313.117" fill="#000000" data-fill-palette-color="accent"></path></g><g fill="#fffff0" data-fill-palette-color="accent"><path d="M659.132 252.74c1.091-47.996-43.633-105.809-78.539-137.443-27.271-25.089-63.267-45.814-100.354-52.359-38.179-6.544-85.084-10.908-106.9 25.089-28.361 46.905 6.545 100.354 42.542 130.897 0-11.999-7.636-23.998-9.817-35.997-3.272-19.634 1.091-41.451 14.181-56.722 23.998-26.18 55.632-20.726 82.902-6.545 31.634 15.271 57.812 46.905 81.811 73.084 18.544 21.816 43.633 56.722 74.176 57.813" fill="#000000" data-fill-palette-color="accent"></path></g><g fill="#fffff0" data-fill-palette-color="accent"><path d="M617.681 263.648c-52.358 0-103.627 15.271-151.623-11.999-28.361-15.271-42.542-37.087-46.905-69.812-4.363-33.815 21.817-54.541 45.814-21.816 9.817 13.09 15.271 28.361 26.18 40.36 16.362 19.635 37.087 30.543 58.904 42.542 16.362 9.818 33.814 20.726 53.449 19.635" fill="#000000" data-fill-palette-color="accent"></path></g><g fill="#fffff0" data-fill-palette-color="accent"><path d="M374.342 679.006c2.161-11.541 4.408-23.192 6.658-35.006 6-28 26-68 20-98l-6-2c-12.501 2.632-24.136 20.201-34.265 43.661C355.221 584.994 348.62 584 343 584c-2.877 10.07 1.489 20.141 7.889 29.467C335.576 658.332 325.233 711.248 323 728c-0.538 3.494-1.183 10.133-1.782 18.944L321 746c-4 4-8 14-16 16 5.522 2.761 10.1 5.506 15.031 7.609C317.493 835.189 320.208 948.396 357 930c-8-54-4-110 4-164 2.151-21.515 5.465-43.031 9.309-64.856 6.282-1.286 12.993-3.719 18.691-5.144C384.85 689.084 379.743 684.081 374.342 679.006z" fill="#000000" data-fill-palette-color="accent"></path></g><g fill="#fffff0" data-fill-palette-color="accent"><path d="M423 619.24c18.427-40.949 61.425-63.473 104.422-59.377-2.048 4.095-6.143 8.189-8.189 12.285 18.427 0 40.949-8.19 59.377-4.096-2.048 4.096-2.048 8.19-4.095 12.285 20.475 4.095 42.997 2.047 63.472 0-12.285 30.712-47.092 42.997-75.757 49.14 0 4.095 2.047 8.19 4.095 10.237-16.38 4.096-36.854 2.048-53.234 0 4.095 4.096 6.143 10.237 8.189 12.285-32.76-6.143-65.52-2.048-94.185-18.428 16.38-18.427 55.282-22.522 73.71-38.902-30.712-8.189-51.188 14.333-77.805 26.617" fill="#000000" data-fill-palette-color="accent"></path></g><g fill="#fffff0" data-fill-palette-color="accent"><path d="M242.263 303.632c-61.113 7.489-79.384 65.979-76.712 122.933 1.347-22.658 21.372-57.213 48.009-42.623 20.325 10.542 30.985 53.374 44.378 71.943 27.006 40.131 71.633 74.458 120.27 81.42-17.662-15.25-42.583-26.958-60.464-45.198-16.494-19.846-27.225-43.122-36.35-65.012-14.49-33.528-15.995-95.08-38.912-120.471" fill="#000000" data-fill-palette-color="accent"></path></g></svg></g></svg></g></svg></g><defs></defs></svg><rect width="395.52" height="93.22496139984199" fill="none" stroke="none" visibility="hidden"></rect></g></svg></g></svg>